<svg width="512.000000" height="512.000000" viewBox="0 0 512 512" fill="none" xmlns="http://www.w3.org/2000/svg" xmlns:xlink="http://www.w3.org/1999/xlink">
	<desc>
			Created with Pixso.
	</desc>
	<defs>
		<clipPath id="clip8_17">
			<rect id="SmartHNU" rx="40.000000" width="512.000000" height="512.000000" fill="white" fill-opacity="0"/>
		</clipPath>
	</defs>
	<rect id="SmartHNU" rx="40.000000" width="512.000000" height="512.000000" fill="#3E8380" fill-opacity="1.000000"/>
	<g clip-path="url(#clip8_17)">
		<path id="path" d="M184.88 327.11L284.44 327.11L284.44 298.66L184.88 298.66L184.88 327.11ZM184.88 270.22L327.11 270.22L327.11 241.77L184.88 241.77L184.88 270.22ZM184.88 213.33L327.11 213.33L327.11 184.88L184.88 184.88L184.88 213.33ZM156.44 384C148.62 384 141.92 381.21 136.36 375.65C130.79 370.08 128 363.38 128 355.55L128 156.44C128 148.62 130.78 141.92 136.36 136.36C141.93 130.79 148.63 128 156.44 128L355.55 128C363.37 128 370.07 130.78 375.65 136.36C381.22 141.93 384.01 148.63 384 156.44L384 355.55C384 363.37 381.21 370.07 375.65 375.65C370.08 381.22 363.38 384 355.55 384L156.44 384ZM156.44 355.55L355.55 355.55L355.55 156.44L156.44 156.44L156.44 355.55ZM156.44 156.44L156.44 355.55L156.44 156.44Z" fill="#FFFFFF" fill-opacity="1.000000" fill-rule="nonzero"/>
	</g>
</svg>
